<svg xmlns="http://www.w3.org/2000/svg" xmlns:xlink="http://www.w3.org/1999/xlink" version="1.1" x="0px" y="0px" viewBox="0 0 83 68.75" style="enable-background:new 0 0 83 55;" xml:space="preserve"><title>404</title><path d="M78.5,0H4.5C2,0,0,2,0,4.5c0,0,0,0,0,0v46.1C0,53,2,55,4.5,55h74.1c2.4,0,4.4-2,4.5-4.4V4.5C83,2,81,0,78.5,0z M80,50.6  c0,0.8-0.7,1.4-1.5,1.4H4.5C3.7,52,3,51.4,3,50.6V13.5h77V50.6z M80,10.5H3v-6C3,3.7,3.7,3,4.5,3h74.1C79.3,3,80,3.7,80,4.5V10.5z   M76.4,5.6c0.6,0,1,0.4,1,1s-0.4,1-1,1s-1-0.4-1-1S75.9,5.6,76.4,5.6z M72.4,5.6c0.6,0,1,0.4,1,1s-0.4,1-1,1s-1-0.4-1-1  S71.9,5.6,72.4,5.6z M68.4,5.6c0.6,0,1,0.4,1,1s-0.4,1-1,1s-1-0.4-1-1S67.9,5.6,68.4,5.6z M27.8,23l-4.9,4.9c-0.6,0.6-0.6,1.6,0,2.1  c0,0,0,0,0,0c0.6,0.6,1.5,0.6,2.1,0l4.9-4.9l4.9,4.9c0.7,0.5,1.6,0.3,2.1-0.4c0.4-0.5,0.4-1.2,0-1.8L32.1,23l4.9-4.9  c0.6-0.6,0.6-1.6,0-2.1c-0.3-0.3-0.7-0.4-1.1-0.4l0,0c-0.4,0-0.8,0.2-1.1,0.4L30,20.8l-5-4.9c-0.6-0.6-1.6-0.6-2.1,0s-0.6,1.6,0,2.1  L27.8,23z M51.9,23L47,27.9c-0.3,0.3-0.4,0.7-0.4,1.1c0,0.4,0.2,0.7,0.4,1c0.6,0.6,1.5,0.6,2.2,0l4.9-4.9L59,30  c0.3,0.3,0.7,0.5,1.1,0.5c0.8,0,1.5-0.7,1.5-1.5c0-0.4-0.2-0.8-0.4-1.1L56.2,23l4.9-4.9c0.3-0.3,0.5-0.7,0.5-1.1  c0-0.8-0.6-1.5-1.5-1.6c-0.4,0-0.8,0.2-1.1,0.5l-4.9,4.9l-4.9-4.9c-0.3-0.3-0.7-0.4-1.1-0.4l0,0c-0.4,0-0.8,0.1-1.1,0.4  c-0.3,0.3-0.4,0.7-0.4,1.1c0,0.4,0.2,0.8,0.4,1L51.9,23z M23.6,37.6h22V42c0.2,4.5,3.9,8,8.4,7.8c4.3-0.1,7.7-3.6,7.8-7.8v-5.8  c0-0.8-0.7-1.5-1.5-1.5H23.6c-0.8,0-1.5,0.7-1.5,1.5S22.8,37.6,23.6,37.6z M48.6,37.6h10.2V42c-0.1,2.8-2.5,5-5.3,4.9  c-2.6-0.1-4.8-2.2-4.9-4.9V37.6z"/><text x="0" y="70" fill="#000000" font-size="5px" font-weight="bold" font-family="'Helvetica Neue', Helvetica, Arial-Unicode, Arial, Sans-serif">Created by ochre7</text><text x="0" y="75" fill="#000000" font-size="5px" font-weight="bold" font-family="'Helvetica Neue', Helvetica, Arial-Unicode, Arial, Sans-serif">from the Noun Project</text></svg>